<?xml version="1.0" encoding="utf-8"?>
<!-- Generator: Adobe Illustrator 24.0.1, SVG Export Plug-In . SVG Version: 6.00 Build 0)  -->
<svg version="1.1" id="圖層_1" xmlns="http://www.w3.org/2000/svg" xmlns:xlink="http://www.w3.org/1999/xlink" x="0px" y="0px"
	 viewBox="0 0 384 512" style="enable-background:new 0 0 384 512;" xml:space="preserve">
<style type="text/css">
	.st0{fill:#A0A0A0;}
</style>
<path class="st0" d="M336,64h-53.9C268.9,26.8,233.7,0,192,0s-76.9,26.8-90.1,64H48C21.5,64,0,85.5,0,112v352c0,26.5,21.5,48,48,48
	h288c26.5,0,48-21.5,48-48V112C384,85.5,362.5,64,336,64z M192,64c17.7,0,32,14.3,32,32s-14.3,32-32,32s-32-14.3-32-32
	S174.3,64,192,64z M282.9,262.8l-88,112c-4,5.2-10,8.4-16.5,9.1c-0.8-0.8-1.6,0.1-2.4,0.1c-5.7,0-11.3-2-15.6-5.8l-56-48
	c-10.1-8.6-11.2-23.8-2.6-33.8c8.6-10.1,23.8-11.2,33.8-2.6l37,31.7l72.5-92.3c8.2-10.4,23.3-12.2,33.7-4.1
	C289.3,237.3,291.1,252.4,282.9,262.8z"/>
</svg>
