<?xml version="1.0" encoding="utf-8"?>
<!-- Generator: Adobe Illustrator 24.0.1, SVG Export Plug-In . SVG Version: 6.00 Build 0)  -->
<svg version="1.1" id="圖層_1" xmlns="http://www.w3.org/2000/svg" xmlns:xlink="http://www.w3.org/1999/xlink" x="0px" y="0px"
	 viewBox="0 0 24 24" style="enable-background:new 0 0 24 24;" xml:space="preserve">
<style type="text/css">
	.st0{fill:#FFFFFF;}
</style>
<path class="st0" d="M9.8,15.2l6.7-6.7c0.2-0.2,0.5-0.2,0.7,0c0.2,0.2,0.2,0.5,0,0.7l-7.1,7.1c-0.2,0.2-0.5,0.2-0.7,0l-2.8-2.8
	c-0.2-0.2-0.2-0.5,0-0.7c0.2-0.2,0.5-0.2,0.7,0C7.4,12.7,9.8,15.2,9.8,15.2z M6,4.5C5.2,4.5,4.5,5.2,4.5,6v12c0,0.8,0.7,1.5,1.5,1.5
	h12c0.8,0,1.5-0.7,1.5-1.5V6c0-0.8-0.7-1.5-1.5-1.5H6z M6,3.5h12c1.4,0,2.5,1.1,2.5,2.5v12c0,1.4-1.1,2.5-2.5,2.5H6
	c-1.4,0-2.5-1.1-2.5-2.5V6C3.5,4.6,4.6,3.5,6,3.5z"/>
</svg>
