<?xml version="1.0" encoding="utf-8"?>
<!-- Generator: Adobe Illustrator 24.0.1, SVG Export Plug-In . SVG Version: 6.00 Build 0)  -->
<svg version="1.1" id="圖層_1" xmlns="http://www.w3.org/2000/svg" xmlns:xlink="http://www.w3.org/1999/xlink" x="0px" y="0px"
	 viewBox="0 0 64 64" style="enable-background:new 0 0 64 64;" xml:space="preserve">
<style type="text/css">
	.st0{fill:none;stroke:#FFFFFF;stroke-width:2;stroke-linecap:round;stroke-linejoin:round;stroke-miterlimit:10;}
</style>
<title>Wallet</title>
<desc>A line styled icon from Orion Icon Library.</desc>
<path class="st0" d="M51.7,15L48,5L20.5,15"/>
<path class="st0" d="M58,43v13c0,1.7-1.3,3-3,3H5c-1.7,0-3-1.3-3-3V18c0-1.7,1.3-3,3-3h50c1.7,0,3,1.3,3,3v13"/>
<path class="st0" d="M44,31h16c1.1,0,2,0.9,2,2v8c0,1.1-0.9,2-2,2H44c-1.1,0-2-0.9-2-2v-8C42,31.9,42.9,31,44,31z"/>
<path class="st0" d="M12,21h2 M22,21h2 M32,21h2 M42,21h2 M16,53h2 M26,53h2 M36,53h2 M46,53h2"/>
<circle class="st0" cx="49" cy="37" r="1"/>
</svg>
