<?xml version="1.0" encoding="utf-8"?>
<!-- Generator: Adobe Illustrator 24.0.1, SVG Export Plug-In . SVG Version: 6.00 Build 0)  -->
<svg version="1.1" id="圖層_1" xmlns="http://www.w3.org/2000/svg" xmlns:xlink="http://www.w3.org/1999/xlink" x="0px" y="0px"
	 viewBox="0 0 64 64" style="enable-background:new 0 0 64 64;" xml:space="preserve">
<style type="text/css">
	.st0{fill:url(#SVGID_1_);}
</style>
<title>Forward Arrow</title>
<desc>A solid styled icon from Orion Icon Library.</desc>
<linearGradient id="SVGID_1_" gradientUnits="userSpaceOnUse" x1="1.6859" y1="32.5756" x2="57.9119" y2="31.508">
	<stop  offset="0" style="stop-color:#D1B394"/>
	<stop  offset="1" style="stop-color:#BABABA"/>
</linearGradient>
<path class="st0" d="M32,0C14.3,0,0,14.3,0,32s14.3,32,32,32s32-14.3,32-32S49.7,0,32,0z M43.4,39.5c-0.8,0.8-2.1,0.7-2.8-0.1
	s-0.7-2.1,0.1-2.8l0,0l4.9-4.5H22c-2.2,0-4,1.8-4,4s1.8,4,4,4c1.1,0,2,0.9,2,2s-0.9,2-2,2c-4.4,0-8-3.6-8-8s3.6-8,8-8h23.5l-4.9-4.5
	c-0.8-0.8-0.8-2-0.1-2.8s2-0.8,2.8-0.1L53.5,30L43.4,39.5z"/>
</svg>
