<?xml version="1.0" encoding="utf-8"?>
<!-- Generator: Adobe Illustrator 24.0.1, SVG Export Plug-In . SVG Version: 6.00 Build 0)  -->
<svg version="1.1" id="圖層_1" xmlns="http://www.w3.org/2000/svg" xmlns:xlink="http://www.w3.org/1999/xlink" x="0px" y="0px"
	 viewBox="0 0 512 512" style="enable-background:new 0 0 512 512;" xml:space="preserve">
<style type="text/css">
	.st0{fill:#A0A0A0;}
</style>
<path class="st0" d="M282.3,343.7l-34.2,32.4c-3.6,5.4-9.7,7.9-16.1,7.9h-40v40c0,13.3-10.7,24-24,24h-40v40c0,13.3-10.7,24-24,24
	H24c-13.3,0-24-10.7-24-24v-80c0-6.4,2.5-12.5,7-17l161.3-161.3c-5.4-16.9-8.3-35-8.3-53.7C160,78.8,238.8,0,336,0s176,78.8,176,176
	s-78.8,176-176,176C317.3,352,299.2,349.1,282.3,343.7z M376,176c22.1,0,40-17.9,40-40s-17.9-40-40-40s-40,17.9-40,40
	S353.9,176,376,176z"/>
</svg>
