<?xml version="1.0" encoding="utf-8"?>
<!-- Generator: Adobe Illustrator 24.0.1, SVG Export Plug-In . SVG Version: 6.00 Build 0)  -->
<svg version="1.1" id="圖層_1" xmlns="http://www.w3.org/2000/svg" xmlns:xlink="http://www.w3.org/1999/xlink" x="0px" y="0px"
	 viewBox="0 0 576 512" style="enable-background:new 0 0 576 512;" xml:space="preserve">
<style type="text/css">
	.st0{fill:#2C2F3A;}
</style>
<path class="st0" d="M48.7,79.1c79.7,21.8,159.5,1.5,239.3-18.9c87-22.2,174-44.3,261-11.9c16.9,6.3,27,23.2,27,41.3v309.8
	c0,23.9-25.6,39.7-48.7,33.4c-79.7-21.8-159.5-1.5-239.3,18.8c-87.9,22.2-174.9,44.4-261,11.9c-16.9-6.3-27-23.2-27-41.3V112.5
	C0,88.6,25.6,72.8,48.7,79.1L48.7,79.1z M287.1,352c45.1,0,80.9-43,80.9-96.9c0-53-35.8-96-80.9-96c-43.3,0-80,43-80,96
	C207.1,309,243.8,352,287.1,352z M63.1,416h64c0-35.3-27.8-64-64-64V416z M63.1,143.1v64c36.3,0,64-27.8,64-64H63.1z M512,303.1
	c-35.3,0-64,29.6-64,64.9h64V303.1z M448,95.1c0,36.2,28.7,64,64,64v-64H448z"/>
</svg>
