<?xml version="1.0" encoding="utf-8"?>
<!-- Generator: Adobe Illustrator 24.0.1, SVG Export Plug-In . SVG Version: 6.00 Build 0)  -->
<svg version="1.1" id="圖層_1" xmlns="http://www.w3.org/2000/svg" xmlns:xlink="http://www.w3.org/1999/xlink" x="0px" y="0px"
	 viewBox="0 0 640 512" style="enable-background:new 0 0 640 512;" xml:space="preserve">
<style type="text/css">
	.st0{fill:#A0A0A0;}
</style>
<path class="st0" d="M0,24C0,10.8,10.8,0,24,0h592c13.3,0,24,10.8,24,24s-10.7,24-24,24H24C10.8,48,0,37.3,0,24z M0,488
	c0-13.3,10.8-24,24-24h592c13.3,0,24,10.7,24,24s-10.7,24-24,24H24C10.8,512,0,501.3,0,488z M211.2,160c0,35.3-28.7,64-64,64
	s-64-28.7-64-64s28.7-64,64-64S211.2,124.7,211.2,160z M32,320c0-35.3,28.7-64,64-64h96c12.2,0,23.7,3.4,33.4,9.4
	c-37.2,15.1-65.6,47.2-75.8,86.6H64C46.3,352,32,337.7,32,320L32,320z M415.9,264.6c9.4-5.5,20.4-8.6,32.1-8.6h96
	c35.3,0,64,28.7,64,64c0,17.7-14.3,32-32,32h-82.4C483.2,311.9,453.1,279.4,415.9,264.6z M391.2,290.4c32.1,7.4,58.1,30.9,68.9,61.6
	c3.6,10,5.5,20.8,5.5,32c0,17.7-14.3,32-32,32h-224c-17.7,0-32-14.3-32-32c0-11.2,1.9-22,5.5-32c10.5-29.7,35.2-52.8,66-60.9
	c7-2,16-3.1,24.5-3.1h96C377,288,384.3,288.8,391.2,290.4z M563.2,160c0,35.3-28.7,64-64,64s-64-28.7-64-64s28.7-64,64-64
	S563.2,124.7,563.2,160z M241.6,176c0-44.2,35.8-80,80-80s80,35.8,80,80s-35.8,80-80,80S241.6,220.2,241.6,176z"/>
</svg>
