<?xml version="1.0" encoding="utf-8"?>
<!-- Generator: Adobe Illustrator 24.0.1, SVG Export Plug-In . SVG Version: 6.00 Build 0)  -->
<svg version="1.1" id="圖層_1" xmlns="http://www.w3.org/2000/svg" xmlns:xlink="http://www.w3.org/1999/xlink" x="0px" y="0px"
	 viewBox="0 0 384 512" style="enable-background:new 0 0 384 512;" xml:space="preserve">
<style type="text/css">
	.st0{fill:#A0A0A0;}
</style>
<path class="st0" d="M336,0H48C21.5,0,0,21.5,0,48v416c0,26.5,21.5,48,48,48h288c26.5,0,48-21.5,48-48V48C384,21.5,362.5,0,336,0z
	 M192,128c35.4,0,64,28.6,64,64s-28.6,64-64,64s-64-28.7-64-64S156.7,128,192,128z M288,384H96c-8.8,0-16-7.2-16-16
	c0-44.2,35.8-80,80-80h64c44.2,0,80,35.8,80,80C304,376.8,296.8,384,288,384z"/>
</svg>
