<?xml version="1.0" encoding="utf-8"?>
<!-- Generator: Adobe Illustrator 24.0.1, SVG Export Plug-In . SVG Version: 6.00 Build 0)  -->
<svg version="1.1" id="圖層_1" xmlns="http://www.w3.org/2000/svg" xmlns:xlink="http://www.w3.org/1999/xlink" x="0px" y="0px"
	 viewBox="0 0 512 512" style="enable-background:new 0 0 512 512;" xml:space="preserve">
<style type="text/css">
	.st0{fill:#A0A0A0;}
</style>
<path class="st0" d="M256,0c4.7,0,9.2,1,13.4,2.9l188.3,79.9c22,9.3,38.5,31,38.3,56.3c-0.5,100.1-41.3,281.6-213.6,364.1
	c-16.7,7.9-36.1,7.9-52.8,0C57.3,420.7,16.5,239.2,15.1,139.1c0.8-25.3,17.2-47,39.2-56.3L242.7,2.9C246.8,1,251.4,0,256,0L256,0z
	 M256,444.8C393.1,378,431.1,230.1,432,141.4L256,66.8V444.8z"/>
</svg>
