<?xml version="1.0" encoding="utf-8"?>
<!-- Generator: Adobe Illustrator 24.0.1, SVG Export Plug-In . SVG Version: 6.00 Build 0)  -->
<svg version="1.1" id="圖層_1" xmlns="http://www.w3.org/2000/svg" xmlns:xlink="http://www.w3.org/1999/xlink" x="0px" y="0px"
	 viewBox="0 0 64 64" style="enable-background:new 0 0 64 64;" xml:space="preserve">
<style type="text/css">
	.st0{fill:none;stroke:#FFFFFF;stroke-width:2;stroke-linecap:round;stroke-linejoin:round;stroke-miterlimit:10;}
</style>
<title>Loop</title>
<desc>A line styled icon from Orion Icon Library.</desc>
<path class="st0" d="M46.4,16.8c-8.9,0-13.2,7.5-17,14.1S22.7,42,17.6,42S8,37.3,8,32s4-9.2,10-9.2c0.9,0,1.9,0.2,2.7,0.6L17.2,24
	l1,5.9L30,27l-3-13l-5.1,1.1l0.9,2.6c-1.5-0.6-3.1-0.9-4.7-1C9,16.8,2,23.4,2,32s7.1,16,15.7,16s13.2-7.5,17-14.1
	s6.7-11.1,11.8-11.1c5.1-0.1,9.4,4,9.5,9.1c0,0,0,0.1,0,0.1c0.1,5.4-4.2,9.9-9.6,10c-0.1,0-0.3,0-0.4,0c-2,0-4.9-1.3-7.2-4.2
	L34,41.5c3.5,4.4,8,6.5,12,6.5c8.8,0,16-7.2,16-16c-0.1-8.4-6.9-15.3-15.4-15.2C46.5,16.8,46.5,16.8,46.4,16.8z"/>
</svg>
