<?xml version="1.0" encoding="utf-8"?>
<!-- Generator: Adobe Illustrator 24.0.1, SVG Export Plug-In . SVG Version: 6.00 Build 0)  -->
<svg version="1.1" id="圖層_1" xmlns="http://www.w3.org/2000/svg" xmlns:xlink="http://www.w3.org/1999/xlink" x="0px" y="0px"
	 viewBox="0 0 64 64" style="enable-background:new 0 0 64 64;" xml:space="preserve">
<style type="text/css">
	.st0{fill:none;stroke:#FFFFFF;stroke-width:2;stroke-linecap:round;stroke-linejoin:round;stroke-miterlimit:10;}
</style>
<title>Wallet</title>
<desc>A line styled icon from Orion Icon Library.</desc>
<path class="st0" d="M20.2,46H5c-1.7,0-3-1.3-3-3V7c0-1.7,1.3-3,3-3h54c1.7,0,3,1.3,3,3 M12,14h21.3 M12,26h8"/>
<path class="st0" d="M62,41c0.1,2.1-1.1,4.1-3,5L24,59.6c-3,1.3-4-1-4-2.6V23c-0.1-2.1,1.1-4.1,3-5L57,4.8C59.2,4,62,5.3,62,7V41z"
	/>
<circle class="st0" cx="32" cy="36.2" r="4"/>
</svg>
